<?xml version="1.0" encoding="UTF-8" standalone="no"?><svg xmlns="http://www.w3.org/2000/svg" xmlns:xlink="http://www.w3.org/1999/xlink" fill="#ebeff8" height="471.5" preserveAspectRatio="xMidYMid meet" version="1" viewBox="-0.0 -0.1 420.7 471.5" width="420.7" zoomAndPan="magnify"><g id="change1_1"><path d="M7.4,344.5c13.9-11.5,30.2-17.9,47.6-22c-16.9-5.5-34.2-8.3-52.9-7.7c8-9.2,16.9-15.7,27.1-20.7c-0.1-0.4-0.1-0.8-0.2-1.1 c-8.9-1.6-17.7-3.2-27.2-4.9c14.3-8.9,29.4-14.3,46.6-17.4c-15.7-7.8-31.6-12.2-48.4-16.4c16.2-9,33.2-13.8,50.6-18.4 c-4-0.8-8.1-1.9-12.1-2.4c-4.1-0.6-8.3-0.8-12.5-1c-4.3-0.2-8.5,0-13.7,0c18.7-23.3,41.3-40.6,65.7-55.8c-5.3-6.2-10.8-12-15.6-18.3 c-16.1-21.1-25.2-44.9-25.9-71.5c-0.6-21.3,3.8-41.5,15.1-59.8c2.4-4,5.5-7.7,8.8-10.9c5.7-5.5,12.5-7,20.2-4.5 c21,7,38.5,19.3,54,34.8c3.1,3.1,6.1,6.4,8.8,9.3c-0.7-11.7-1.5-23.7-2.2-35.7c0.5-0.1,0.9-0.2,1.4-0.3c9.2,7.7,16.1,17.4,23.3,27.5 c0.5-0.9,0.9-1.6,1.1-2.4c5.7-14.7,13-28.4,23.5-40.3c1.9-2.2,3.4-2.4,5.9-0.9c11.3,6.9,21.7,14.9,31.5,24.1c-1-2.9-1.9-5.9-2.9-8.8 c-1.1-3.2-2.3-6.4-3.6-9.5c-1.2-3-2.6-5.9-4.3-9.6c17.5,12.7,30.5,27.9,38.4,46.9c7.6-9.1,15.2-18.3,22.7-27.4 c0.4,0.2,0.8,0.5,1.3,0.7c1,12.3-0.6,24.5-2.4,34.5c4.9-4.4,11-10.1,17.3-15.6c12.9-11.2,27-20.3,43.1-26.4 c12.1-4.6,19.9-1.7,27.7,8.3c10.5,13.3,16.1,28.8,18.4,45.5c5.7,42.4-8.8,77.8-38.2,107.8c-0.6,0.6-1.5,1-2.9,1.8 c25.2,15.6,47.2,33.2,66.2,55.8c-13.2,0.5-25.7,0.2-37.7,4.7c17.2,3.7,33.9,9,49.7,17.4c-8.4,2.4-16.5,4.3-24.3,7 c-7.7,2.6-15.2,5.9-22.8,9.3c16,3.3,30.9,9,45.5,17.5c-9.3,1.7-17.9,3.3-26.5,4.9c-0.1,0.3-0.1,0.7-0.2,1 c9.7,5.3,18.7,11.5,26.2,20.8c-18.4,0-35.6,2.3-52.5,8c17.5,3.9,33.7,10.4,48.3,22.2c-7.2,0.4-13.7,0.6-20.1,1.1 c-29,2.6-54,14.5-76.1,33.2c-19.2,16.3-35.9,34.9-49.6,56c-10.8,16.5-24.7,28.1-44.4,31.8c-25.1,4.7-51.4-2.9-67.5-26.6 c-12.8-18.8-26.6-36.8-43.2-52.4c-21.7-20.4-46.2-35.6-76.1-40.5C27.5,345.9,17.6,345.5,7.4,344.5z M317.9,215.3 c2.9-13.3,5.8-26.3,8.7-39.5c-5.8,0.3-10.8,0.5-15.9,0.8c6.1-6.8,12.4-12.7,18.7-18.5c18.6-17.3,30-38.5,34.2-63.4 c1.6-9.6,1.9-19.3-1.8-28.5c-4.4-11.2-13.3-14.4-23.4-7.9c-5.8,3.7-11.3,7.9-16.5,12.4c-17.7,15.3-31.7,33.3-37,56.6 c-1.7,7.5-4.9,12.3-11.4,16.1c-5.8,3.3-10.8,7.8-16.4,11.9c1.5-8.6,2.9-17,4.3-25.4c-21.6,19-38.4,41.5-51.1,67.5 c-12.8-26-29.5-48.4-50.8-67.5c1.5,8.4,3,16.8,4.4,24.9c-8.2-5.6-16.4-11.1-24.4-16.8c-0.9-0.6-1.5-2.1-1.7-3.2 c-7-34.4-27.6-58.9-56.4-77.3c-8.5-5.4-17-2.8-21.1,6.4C58,69,56.6,75,56.5,80.7c-0.6,21.5,7.1,40.5,18.8,58.1 c8.1,12.2,19.3,21.5,29.8,31.4c1.9,1.8,3.8,3.6,6.1,5.8c-6,0-11.2,0-16.7,0c3,13,5.9,25.9,9,39.1c-11.6,3-22.4,1.3-33.2-4.4 c3.4,15,10.2,27.8,19.7,39.7c-9.3,1.4-17.9,2.8-26.2,4c10,8.4,19.8,16.6,29.7,24.9c-14.8,5.1-28.7,9.9-42.7,14.7 c0.1,0.4,0.1,0.8,0.2,1.3c2.5,1.3,5.1,2.5,7.6,3.8c2.5,1.3,5.1,2.7,7.5,4.2c26.8,15.9,47.9,37.8,65.2,63.2 c12.9,18.9,24.2,38.9,36.1,58.5c3.8,6.3,8.1,12.1,14.1,16.6c17.3,13.1,54.4,14.6,71.4-15.1c11.7-20.3,23.8-40.4,36.9-59.9 c15.4-22.9,34-42.9,57.3-58.1c7.4-4.8,15.2-8.9,23.8-13.9c-14.6-5-28.6-9.8-43.5-15c10.3-8.5,20.3-16.8,30.4-25.1 c-8.8-1.4-17.6-2.7-26.8-4.2c9.1-12.1,15.9-24.6,19.3-39.5C339.5,216.1,329.1,218,317.9,215.3z M312,239.9 c-5.5,5.8-10.4,10.9-15,16.1c-0.9,1-1.4,2.9-1.2,4.2c2.2,12.4-2.9,23.1-13.1,27c-7.2,2.8-14,2-20.5-3.7c-6,24.3-12,48.2-17.9,72.1 c-0.2,0-0.4,0-0.6,0c0-1.8,0-3.6,0-5.4c0-27.2-0.2-54.5,0-81.7c0.1-20.8,8.8-37.4,24.9-50.3c0.3-0.2,0.7-0.4,0.8-0.5 c-1.6,9.9-3.2,19.8-4.9,29.8c0.3,0.2,0.7,0.4,1,0.7C279.4,237.6,295,237.3,312,239.9z M278.1,273.4c3.4,0,6.1-2.7,6.2-6.2 c0-3.6-2.5-6.3-6-6.4c-3.3-0.1-6.5,2.8-6.5,6C271.6,270.3,274.6,273.4,278.1,273.4z M176.3,355c-5.9-23.6-11.7-47.3-17.6-71 c-14.7,9.1-29.8,3.4-33.6-12.7c-0.8-3.3-0.3-7,0.3-10.4c0.4-2.2,0.1-3.5-1.4-5.1c-4.7-5-9.3-10.2-14-15.3c9.1-3.3,31.9-3.3,45.4,7.5 c0.5-10.6-1.5-20.6-4.6-31.1c1.4,0.9,2.2,1.3,2.9,1.9c14.7,12.8,23.2,28.6,23.2,48.4c0,28.8,0,57.6-0.1,86.4c0,0.5-0.1,0.9-0.1,1.4 C176.6,354.9,176.5,355,176.3,355z M143.3,260.9c-3.5-0.1-6.4,2.8-6.4,6.4c0,3.3,2.8,6.1,6.2,6.1c3.4,0,6.3-2.8,6.2-6.1 C149.4,263.9,146.5,260.9,143.3,260.9z M199.7,392.5c-11.8,2.3-20.7,11-21.9,21c-1.4,11.6,3.6,20.9,14.8,25.6 c13,5.5,26.3,5.3,38.7-1.6c15.3-8.5,16.7-28.2,3.1-39.2c-6.7-5.4-14.6-7.1-23.1-7.2C207.4,391.6,203.5,391.8,199.7,392.5z"/></g></svg>